<svg width="137" height="39" viewBox="0 0 137 39" fill="none" xmlns="http://www.w3.org/2000/svg">
<path d="M9.19692 14.7766C8.74799 14.2777 8.1969 13.8858 7.58279 13.6285C6.96669 13.3685 6.30837 13.2385 5.65005 13.2601C2.33657 13.2601 0 16.0335 0 19.6301C0 23.2485 2.33657 25.9566 5.67116 25.9566C6.32948 25.9785 6.96669 25.8485 7.58279 25.6101C8.19889 25.3716 8.72977 24.9816 9.19692 24.5266V24.8516C9.19692 26.6501 7.9225 27.6466 6.11721 27.6466C4.69424 27.6035 3.29238 27.1916 2.08168 26.4335V30.5716C3.3561 31.1566 4.73646 31.4601 6.11721 31.4385C10.5988 31.4385 13.1902 29.1635 13.1902 24.2885V13.5201H9.19692V14.7766ZM8.55971 20.9516C8.30483 21.3416 7.94401 21.6451 7.49796 21.8401C7.07302 22.0135 6.60587 22.0785 6.13832 21.9701C5.69227 21.8835 5.26773 21.6451 4.92762 21.3201C4.60255 20.9885 4.38085 20.5663 4.29041 20.1066C4.20478 19.6414 4.24894 19.161 4.41785 18.7201C4.58791 18.2866 4.90651 17.9185 5.28884 17.6366C5.67116 17.3766 6.13832 17.2251 6.58436 17.2251C6.90297 17.2251 7.20047 17.2901 7.47646 17.3985C7.75285 17.5285 8.02884 17.7016 8.24111 17.9185C8.45378 18.1351 8.62343 18.3951 8.75087 18.6985C8.87832 18.9801 8.92093 19.3051 8.92093 19.6085C8.96354 20.0851 8.8361 20.5401 8.55971 20.9516ZM22.6416 20.7135C22.6416 20.9301 22.6205 21.1466 22.5357 21.3635C22.4509 21.5585 22.3445 21.7535 22.196 21.9051C22.0419 22.0592 21.8619 22.184 21.6647 22.2735C21.4736 22.3601 21.2402 22.4035 21.0275 22.3816C20.0506 22.3816 19.4345 21.6885 19.4345 20.5401V13.5201H15.4416V21.7535C15.4416 24.3751 17.0983 26.3251 19.6256 26.3251C20.2202 26.3466 20.8152 26.1951 21.3461 25.9135C21.8774 25.6316 22.3234 25.1985 22.642 24.6785V26.0435H26.6349V13.5201H22.6416V20.7135ZM34.1544 13.6285C33.6658 13.8885 33.2412 14.2566 32.9437 14.7116V13.5201H28.9504V26.0651H32.9226V18.8935C32.9226 18.6551 32.9863 18.4385 33.0712 18.2216C33.156 18.0051 33.3049 17.8316 33.4535 17.6801C33.6235 17.5285 33.8147 17.3985 34.027 17.3335C34.2392 17.2466 34.4519 17.2251 34.6853 17.2251C35.3651 17.2251 36.0234 17.3551 36.6395 17.6151V13.3466C36.3298 13.3026 36.0175 13.2809 35.7048 13.2816C35.174 13.2601 34.6431 13.3901 34.1544 13.6285ZM45.6672 20.7135C45.6672 20.9301 45.6461 21.1466 45.5609 21.3635C45.476 21.5585 45.3697 21.7535 45.2211 21.9051C45.0672 22.0593 44.8874 22.1841 44.6903 22.2735C44.4991 22.3601 44.2653 22.4035 44.0531 22.3816C43.0757 22.3816 42.46 21.6885 42.46 20.5401V13.5201H38.4667V21.7535C38.4667 24.3751 40.1235 26.3251 42.6512 26.3251C43.2458 26.3466 43.8404 26.1951 44.3717 25.9135C44.9025 25.6316 45.3486 25.1985 45.6672 24.6785V26.0435H49.6605V13.5201H45.6672V20.7135ZM58.9634 13.2601C58.3642 13.2622 57.7742 13.4108 57.2429 13.6935C56.712 13.9751 56.266 14.4085 55.9474 14.9066V8.88354H51.9541V26.0651H55.9474V18.8935C55.9287 18.6712 55.9651 18.4477 56.0533 18.2435C56.1385 18.0266 56.2445 17.8535 56.4145 17.6801C56.5726 17.5207 56.7604 17.3954 56.9669 17.3116C57.1792 17.2251 57.3914 17.2035 57.6041 17.2035C57.8375 17.2035 58.0502 17.2466 58.2624 17.3335C58.4747 17.4201 58.6448 17.5716 58.8148 17.7451C58.9634 17.9185 59.0697 18.1135 59.1545 18.3301C59.2394 18.5466 59.2394 18.7851 59.2182 19.0016V26.0216H63.2116V17.8535C63.1689 15.2316 61.5122 13.2601 58.9634 13.2601ZM74.6379 14.3651C73.5762 13.6501 72.344 13.2601 71.0695 13.2601C70.2201 13.2385 69.3917 13.4116 68.6059 13.7366C67.8198 14.0616 67.0977 14.5385 66.5031 15.1451C65.9081 15.7516 65.441 16.4885 65.1224 17.2685C64.8038 18.0701 64.6552 18.9151 64.6552 19.7816C64.6552 21.0816 65.0376 22.3385 65.7385 23.4216C66.4394 24.5051 67.459 25.3285 68.627 25.8266C69.8019 26.3264 71.0968 26.4548 72.344 26.1951C73.5973 25.9351 74.7443 25.3285 75.6363 24.3966C76.534 23.4777 77.1471 22.31 77.3994 21.0385C77.6543 19.7601 77.5269 18.4601 77.0382 17.2685C76.5073 16.0985 75.679 15.0801 74.6379 14.3651ZM73.5124 20.9085C73.2998 21.3851 72.939 21.7751 72.514 22.0351C72.068 22.2951 71.5793 22.4251 71.0695 22.3816C70.7509 22.3816 70.4323 22.2951 70.1352 22.1651C69.8377 22.0351 69.5829 21.8401 69.3491 21.6016C69.1308 21.3535 68.9581 21.0672 68.8393 20.7566C68.7334 20.4535 68.6697 20.1285 68.6908 19.7816C68.6908 19.2616 68.8393 18.7635 69.1368 18.3301C69.4279 17.904 69.8336 17.5729 70.3049 17.3766C70.7724 17.1816 71.3033 17.1601 71.792 17.2685C72.2802 17.3766 72.7478 17.6366 73.0875 18.0266C73.4342 18.4054 73.6633 18.8803 73.7458 19.3916C73.8092 19.9096 73.7283 20.4353 73.5124 20.9085ZM83.7938 10.1401L80.0343 10.9635V13.5201H78.1438V16.9866H79.8005V26.0651H83.7938V16.9866H85.7054V13.5201H83.7938V10.1401ZM92.4165 13.2601C88.8481 13.2601 86.2355 16.0985 86.2355 19.7816C86.2355 23.7466 88.9544 26.3251 92.6502 26.3251C94.163 26.3672 95.6677 26.0867 97.0681 25.5016V21.6885C95.8184 22.3605 94.424 22.703 93.0114 22.6851C91.567 22.6851 90.5474 22.0566 90.2499 20.9951H97.8965C98.0454 20.3885 98.1091 19.7601 98.1091 19.1316C98.0876 16.0116 96.0063 13.2601 92.4165 13.2601ZM90.2077 18.0051C90.38 17.5659 90.6849 17.194 91.0783 16.9435C91.4606 16.6835 91.9282 16.5751 92.3953 16.6185C93.4997 16.6185 94.2221 17.1816 94.307 18.0051H90.2077ZM103.61 8.88354H99.6173V26.0651H103.61V8.88354Z" fill="#221F5D"/>
<path d="M115.211 3.90405L112.972 35.1353H124.147V3.90405H115.211Z" fill="#2278DD"/>
<path d="M136.891 3.90406L124.988 0V39L136.891 35.1353V3.90406ZM128.222 22.5452L127.342 22.7403V16.4942L128.222 16.3967V22.5452Z" fill="#FF9839"/>
</svg>
